HIERARCHY
ROOT hip
{
	OFFSET 0.000000 0.000000 0.000000 
	CHANNELS 6 Xposition Yposition Zposition Xrotation Zrotation Yrotation
	JOINT abdomen
	{
		OFFSET 0.000000 3.402643 0.000000 
		CHANNELS 3 Xrotation Zrotation Yrotation
		JOINT chest
		{
			OFFSET 0.000000 8.438565 -0.680529 
			CHANNELS 3 Xrotation Zrotation Yrotation
			JOINT neck
			{
				OFFSET 0.000000 10.207942 -0.272212 
				CHANNELS 3 Xrotation Zrotation Yrotation
				JOINT head
				{
					OFFSET 0.000000 3.130431 0.000000 
					CHANNELS 3 Xrotation Zrotation Yrotation
					End Site
					{
						OFFSET 0.000000 3.130435 0.000000 
					}
				}
			}
			JOINT lCollar
			{
				OFFSET 3.470700 6.669187 -0.816635 
				CHANNELS 3 Yrotation Zrotation Xrotation
				JOINT lShldr
				{
					OFFSET 3.198488 0.000000 0.000000 
					CHANNELS 3 Zrotation Yrotation Xrotation
					JOINT lForeArm
					{
						OFFSET 10.139888 0.000000 0.000000 
						CHANNELS 3 Yrotation Zrotation Xrotation
						JOINT lHand
						{
							OFFSET 8.370511 0.000000 0.000000 
							CHANNELS 3 Zrotation Yrotation Xrotation
							End Site
							{
								OFFSET 4.083176 0.000000 0.000000 
							}
						}
					}
				}
			}
			JOINT rCollar
			{
				OFFSET -3.470700 6.669187 -0.816635 
				CHANNELS 3 Yrotation Zrotation Xrotation
				JOINT rShldr
				{
					OFFSET -3.198488 0.000000 0.000000 
					CHANNELS 3 Zrotation Yrotation Xrotation
					JOINT rForeArm
					{
						OFFSET -10.139888 0.000000 0.000000 
						CHANNELS 3 Yrotation Zrotation Xrotation
						JOINT rHand
						{
							OFFSET -8.370511 0.000000 0.000000 
							CHANNELS 3 Zrotation Yrotation Xrotation
							End Site
							{
								OFFSET -4.083176 0.000000 0.000000 
							}
						}
					}
				}
			}
		}
	}
	JOINT lThigh
	{
		OFFSET 5.308129 -1.633274 1.361059 
		CHANNELS 3 Xrotation Zrotation Yrotation
		JOINT lShin
		{
			OFFSET -2.041588 -20.007561 0.000000 
			CHANNELS 3 Xrotation Zrotation Yrotation
			JOINT lFoot
			{
				OFFSET 0.000000 -19.190928 -1.224953 
				CHANNELS 3 Xrotation Yrotation Zrotation
				End Site
				{
					OFFSET 0.000000 -2.449906 4.627600 
				}
			}
		}
	}
	JOINT rThigh
	{
		OFFSET -5.308129 -1.633274 1.361059 
		CHANNELS 3 Xrotation Zrotation Yrotation
		JOINT rShin
		{
			OFFSET 2.041588 -20.007561 0.000000 
			CHANNELS 3 Xrotation Zrotation Yrotation
			JOINT rFoot
			{
				OFFSET 0.000000 -19.190928 -1.224953 
				CHANNELS 3 Xrotation Yrotation Zrotation
				End Site
				{
					OFFSET 0.000000 -2.449906 4.627600 
				}
			}
		}
	}
}
MOTION
Frames: 16
Frame Time: 0.016667
-0.468739 86.226082 73.204048 8.656720 -1.815036 6.090729 -0.674821 -0.283621 2.867142 7.526850 -3.108801 1.404610 5.029948 1.893203 -8.714627 18.321156 5.169306 -4.027333 -0.966184 -2.090659 -0.113862 -77.449043 3.878565 1.314463 -26.032061 -0.230879 24.941311 1.583202 -3.369820 2.405821 0.956406 2.080914 -0.113715 82.481522 -6.153052 -9.730746 46.196327 0.996771 -0.711561 -1.609111 3.382670 47.092739 -16.382050 -0.419772 -2.525271 34.829750 5.517092 3.973792 -8.538015 -18.953293 -4.425452 -12.657994 5.884275 -2.399373 19.865850 -5.591151 -2.926715 -19.720549 -11.206619 -2.538513 
-0.578191 86.332535 73.003342 8.873269 -2.113100 6.193488 -0.434628 -0.085194 3.130291 7.700539 -3.006247 1.555306 5.586720 0.946418 -8.013920 18.432722 4.763356 -3.696821 -0.966184 -2.090659 -0.113862 -77.649124 2.192210 0.753366 -26.412630 -0.243053 24.943430 1.583372 -3.369828 2.903868 0.956406 2.080914 -0.113715 82.195343 -5.580439 -10.140135 44.419479 1.013678 -0.724555 -1.601946 3.389319 47.942348 -18.347771 0.302423 -2.298426 37.377243 5.388027 4.212407 -6.252992 -18.531261 -3.585348 -12.011452 6.425218 -1.312971 18.347462 -5.576165 -2.781057 -19.913864 -12.083467 -2.986803 
-0.678205 86.450050 72.809029 9.137232 -2.130843 6.073246 -0.171577 0.021296 3.171239 7.889390 -2.698044 1.572185 5.974122 0.080432 -7.005803 18.515921 4.406154 -3.214472 -0.966184 -2.090659 -0.113862 -78.015617 0.983668 -0.705950 -27.291864 -0.251528 24.933649 1.583428 -3.369831 3.069884 0.956406 2.080914 -0.113715 81.681511 -4.795163 -9.762499 42.652397 1.016839 -0.737697 -1.601946 3.389319 48.791962 -19.902378 0.604846 -1.978439 38.448490 5.296341 4.299321 -6.365639 -17.848921 -3.464274 -11.534380 6.469971 -0.235432 17.081501 -5.548251 -2.666997 -19.987244 -12.840870 -3.349656 
-0.741524 86.569931 72.631233 9.321259 -1.840622 5.938016 0.042942 -0.052417 3.193439 7.992949 -2.499448 1.595644 6.287797 -0.801693 -6.004279 18.530191 3.992260 -2.709781 -0.966184 -2.090659 -0.113862 -78.049545 0.258725 -1.673248 -28.602852 -0.274509 24.927004 1.583175 -3.369819 2.327696 0.956406 2.080914 -0.113715 81.350746 -4.106115 -9.369703 40.924484 1.027061 -0.757354 -1.611728 3.389311 49.338257 -20.793629 0.409757 -1.650638 37.836357 5.290393 4.262797 -7.431710 -17.142664 -3.686458 -11.111194 6.024573 0.495473 16.178514 -5.559174 -2.590322 -20.014183 -13.346722 -3.602549 
-0.771158 86.685089 72.487411 9.446431 -1.454622 5.812523 0.136549 -0.278314 3.438676 8.032216 -2.507614 1.707163 6.602069 -1.686580 -5.423111 18.515408 3.559488 -2.415529 -0.966184 -2.090659 -0.113862 -77.701439 -0.046231 -1.444960 -30.107887 -0.299985 24.917812 1.572873 -3.369813 0.804836 0.956406 2.080914 -0.113715 81.385918 -3.830927 -9.562452 39.362312 1.034161 -0.761595 -1.611728 3.389311 49.455448 -20.932274 -0.078417 -1.193220 35.367855 5.388384 4.096383 -7.702305 -16.625153 -3.712896 -10.653446 5.351661 1.001174 15.355136 -5.616161 -2.471608 -20.053429 -13.750491 -3.806730 
-0.777555 86.782127 72.385712 9.562542 -1.165226 5.594573 0.160119 -0.486548 3.757945 8.122128 -2.603983 1.854859 6.875392 -2.469463 -5.256392 18.482113 3.174974 -2.318261 -0.966184 -2.090659 -0.113862 -77.213493 -0.040846 -0.619138 -31.697081 -0.321244 24.905369 1.562387 -3.360055 -0.834637 0.956406 2.080914 -0.113715 81.486305 -3.833025 -9.915952 38.161587 1.037562 -0.775926 -1.611728 3.389311 49.318726 -20.556425 -0.556963 -0.524524 31.657961 5.550445 3.793762 -6.700723 -16.259670 -3.395808 -10.168688 4.693645 1.533296 14.591237 -5.612937 -2.394816 -20.097500 -14.161884 -4.049239 
-0.741186 86.840759 72.313301 9.552678 -1.136369 5.355495 0.207522 -0.576327 3.833303 8.281886 -2.761102 1.882658 7.020956 -3.322276 -4.863030 18.420288 2.829124 -2.127504 -0.966184 -2.090659 -0.113862 -76.848923 0.153560 -0.155889 -33.310303 -0.352975 24.898979 1.562220 -3.369827 -1.742841 0.956406 2.080914 -0.113715 81.365280 -3.819865 -9.904646 37.321930 1.041944 -0.778862 -1.601946 3.389319 49.045864 -19.768661 -0.889143 0.090752 27.550425 5.695574 3.462386 -3.575949 -15.496933 -2.469152 -9.696350 4.287227 1.752620 13.987102 -5.644727 -2.313386 -19.976383 -14.481586 -4.157513 
-0.661704 86.848763 72.252357 9.426352 -1.319831 5.142061 0.227945 -0.621535 3.786293 8.356826 -3.044430 1.858322 7.196857 -4.179971 -4.325731 18.368490 2.463824 -1.851476 -0.966184 -2.090659 -0.113862 -76.422020 0.468102 0.220334 -34.838676 -0.375369 24.886789 1.562210 -3.369828 -1.772137 0.956406 2.080914 -0.113715 81.229065 -3.944514 -9.738448 36.745960 1.050293 -0.784913 -1.601946 3.389319 48.362274 -18.887568 -1.201300 0.284405 24.846128 5.763680 3.229778 -1.632421 -14.135675 -1.955301 -9.370239 4.031201 1.520852 13.919040 -5.703840 -2.269957 -19.823906 -14.531197 -4.140483 
-0.575834 86.800964 72.195450 9.182756 -1.475001 4.917663 0.200574 -0.611613 3.682703 8.380785 -3.221934 1.805698 7.395116 -4.949974 -3.851633 18.327139 2.136853 -1.616237 -0.966184 -2.090659 -0.113862 -76.019608 0.849487 0.684264 -36.211674 -0.399228 24.870255 1.562286 -3.369825 -1.547528 0.956406 2.080914 -0.113715 81.073616 -4.235008 -9.612988 36.423698 1.047132 -0.782463 -1.601946 3.389319 47.297821 -18.233963 -1.669357 -0.122658 24.324986 5.712595 3.202899 -3.218484 -13.144531 -2.404423 -9.291399 3.689588 1.058812 14.377885 -5.772281 -2.302291 -19.576231 -14.400344 -4.002215 
-0.505446 86.707695 72.115273 8.919361 -1.562910 4.598320 0.143520 -0.587512 3.597748 8.333033 -3.267682 1.759095 7.634035 -5.460855 -3.626143 18.325911 1.934720 -1.504378 -0.966184 -2.090659 -0.113862 -75.708519 1.196565 1.264443 -37.301960 -0.409046 24.859461 1.562280 -3.369825 -1.567059 0.956406 2.080914 -0.113715 80.977005 -4.696141 -9.647672 36.443226 1.046848 -0.782258 -1.608995 3.382548 46.106415 -17.809750 -2.226390 -0.680577 24.754412 5.683342 3.241115 -6.298542 -12.094831 -3.131013 -9.647206 3.281087 0.485643 15.622185 -5.900939 -2.400927 -19.232721 -14.294086 -3.786525 
-0.460319 86.603249 72.002472 8.636425 -1.650997 4.163157 0.075839 -0.586565 3.559651 8.236402 -3.314731 1.734923 7.910723 -5.747099 -3.435773 18.354519 1.809432 -1.388171 -0.966184 -2.090659 -0.113862 -75.446205 1.394640 1.668317 -37.975906 -0.424893 24.859173 1.562260 -3.369826 -1.625653 0.956406 2.080914 -0.113715 81.077278 -5.144669 -9.938449 36.589764 1.052568 -0.786539 -1.599063 3.382404 44.856987 -17.494141 -2.685084 -1.046451 24.942259 5.691816 3.226157 -7.697248 -11.173318 -3.387933 -10.443923 2.908876 -0.226690 17.590231 -5.958649 -2.552853 -18.724396 -14.277964 -3.589052 
-0.444156 86.537666 71.894714 8.332871 -1.478374 3.679791 0.006816 -0.694933 3.596680 8.109508 -3.326936 1.757823 8.225694 -5.910946 -3.262303 18.393091 1.712985 -1.276590 -0.966184 -2.090659 -0.113862 -75.206841 1.464798 1.954565 -38.140793 -0.427278 24.856134 1.562286 -3.369825 -1.547528 0.956406 2.080914 -0.113715 81.469337 -5.678532 -10.714761 36.628815 1.051999 -0.786133 -1.601946 3.389319 43.948208 -17.011295 -3.339820 -1.347198 24.887003 5.672801 3.240865 -8.417989 -10.568326 -3.539641 -11.467680 2.332703 -0.908203 20.152723 -5.989705 -2.778729 -18.026722 -14.471197 -3.362230 
-0.448868 86.549782 71.835106 7.911015 -0.841525 3.271609 -0.032413 -0.961282 3.605979 7.998994 -3.213687 1.756927 8.377821 -6.394851 -2.866047 18.313829 1.482370 -1.054795 -0.966184 -2.090659 -0.113862 -74.884415 1.431990 2.144386 -37.831661 -0.424949 24.855463 1.562306 -3.369825 -1.488934 0.956406 2.080914 -0.113715 82.084778 -6.261242 -11.781031 36.531082 1.045575 -0.781335 -1.608667 3.382223 43.401333 -16.222759 -4.499935 -1.712970 24.691126 5.653202 3.244460 -9.343135 -10.194551 -3.750033 -12.353548 1.347437 -1.403065 22.885464 -6.015455 -3.037482 -17.432539 -14.720729 -3.174408 
-0.450557 86.623619 71.806473 7.412247 -0.348625 2.806150 0.017253 -1.201799 3.559002 8.007666 -3.168822 1.718127 8.358879 -6.505064 -2.653396 18.206083 1.415441 -0.942029 -0.966184 -2.090659 -0.113862 -74.561760 1.233863 2.021716 -37.125614 -0.415921 24.864819 1.562310 -3.369825 -1.479169 0.956406 2.080914 -0.113715 82.745461 -6.662084 -12.876395 36.316315 1.048690 -0.783588 -1.608626 3.382185 43.069302 -15.071449 -5.418160 -2.166423 24.087475 5.647857 3.168131 -10.083451 -9.921489 -3.933247 -13.149771 0.692546 -1.776143 25.501965 -5.972134 -3.252120 -17.041533 -14.649197 -2.919529 
-0.440455 86.708412 71.783241 6.904666 -0.591383 2.145087 0.085952 -1.255037 3.539912 8.082041 -3.399049 1.708229 8.407505 -6.540701 -2.399693 18.167009 1.415604 -0.806275 -0.966184 -2.090659 -0.113862 -74.446724 0.937666 1.593584 -36.191154 -0.396566 24.877439 1.562340 -3.369824 -1.391278 0.956406 2.080914 -0.113715 83.371826 -6.858067 -13.957554 36.062492 1.052383 -0.786235 -1.608592 3.382153 42.795864 -13.966657 -5.426718 -2.716696 23.601366 5.702641 3.133955 -10.749460 -9.633616 -4.033331 -13.709577 1.044338 -2.238008 27.492348 -5.927741 -3.446268 -16.511217 -13.882294 -2.473742 
-0.436745 86.775764 71.765388 6.475952 -1.164400 1.469229 0.019221 -1.120834 3.446342 8.070101 -3.676097 1.673687 8.561542 -6.423264 -2.031637 18.167553 1.540792 -0.648457 -0.966184 -2.090659 -0.113862 -74.683357 0.886989 0.828649 -35.096710 -0.384380 24.883722 1.562426 -3.369822 -1.137372 0.956406 2.080914 -0.113715 83.887840 -7.267982 -14.967335 35.955112 1.053949 -0.787349 -1.608576 3.382138 42.668907 -12.996391 -5.029289 -3.244353 23.172272 5.761381 3.071597 -11.467795 -9.126822 -4.092097 -14.013161 1.854937 -2.854116 28.475002 -5.821200 -3.512249 -15.802558 -12.328848 -1.814404 
